<?xml version="1.0" encoding="UTF-8" standalone="no"?>
<svg xmlns="http://www.w3.org/2000/svg" height="151px" width="628px" version="1.1" xmlns:xlink="http://www.w3.org/1999/xlink" viewBox="0 0 628 151">
 <title>Gossim</title>
 <desc>Gossim-io.</desc>
 <g id="Page-1" fill-rule="evenodd" fill="none">
  <g id="1024" fill="#5AA200" transform="translate(-171 -443)">
   <path id="Combined-Shape-Copy" d="m723.5 568.46c-8.83 0-17.12-2.3-24.32-6.32l-23.6 6.32 6.08-22.68c-5.13-7.84-8.12-17.21-8.12-27.28 0-27.59 22.37-49.96 49.96-49.96s49.96 22.37 49.96 49.96-22.37 49.96-49.96 49.96m0-125.46c41.7 0 75.5 33.8 75.5 75.5s-33.8 75.5-75.5 75.5-75.5-33.8-75.5-75.5 33.8-75.5 75.5-75.5zm-12.66 74.33l-5.52 39.86h10.32c9.02 0 17.35-7.32 18.6-16.34l4.19-30.24h-19.88c-3.89 0-7.18 2.87-7.71 6.72zm16.82-39.02c-7.36 0-13.33 5.97-13.33 13.33s5.97 13.33 13.33 13.33 13.33-5.97 13.33-13.33-5.97-13.33-13.33-13.33zm-472.48 82.28c-10.92 7.59-24.47 11.38-40.64 11.38-12.47 0-22.73-3.87-30.78-11.63-8.06-7.76-12.29-17.59-12.7-29.5-0.71-20.89 4.65-37.45 16.08-49.67 11.42-12.22 27.35-18.33 47.79-18.33 11.08 0 19.39 2.4 24.95 7.2l-5.25 15.63c-7.42-4.27-14.74-6.41-21.96-6.41-13.06 0-23.39 4.65-30.99 13.94s-11.15 20.93-10.68 34.9c0.3 8.65 2.98 15.38 8.04 20.21s11.85 7.24 20.35 7.24c7.08 0 13.2-1.9 18.36-5.69l3.22-20.89h-4.26c-5.62 0-10.04-4.95-9.21-10.32l0.84-5.39h34.2l-7.36 47.33zm15.12-19.3c-0.48-13.93 3.5-25.7 11.92-35.3 8.43-9.61 19.35-14.41 32.75-14.41 10.24 0 18.22 2.58 23.94 7.74 5.71 5.17 8.73 12.5 9.06 22.01 0.48 14.22-3.44 26.15-11.76 35.8-8.33 9.66-19.35 14.48-33.05 14.48-10.04 0-17.94-2.6-23.71-7.81s-8.82-12.72-9.15-22.51zm19.26-0.87c0.37 11 5.43 16.5 15.18 16.5 7.72 0 13.71-3.47 17.97-10.41s6.23-15.17 5.91-24.67c-0.35-10.38-5.4-15.56-15.15-15.56-7.57 0-13.52 3.42-17.86 10.26-4.35 6.84-6.36 14.8-6.05 23.88zm113.75-26.29c-6.11-5.05-11.64-7.57-16.58-7.57-3.07 0-5.71 0.69-7.91 2.06-2.21 1.36-3.27 3.2-3.19 5.51 0.1 2.83 2.87 5.57 8.33 8.21s9.65 4.74 12.57 6.3 5.35 3.68 7.27 6.34c1.92 2.67 2.94 5.73 3.06 9.19 0.29 8.5-2.76 15.2-9.15 20.1-6.39 4.89-14.67 7.34-24.86 7.34-8.71 0-17.3-2.37-25.77-7.13l9.23-16.35c6.38 5.67 12.54 8.5 18.47 8.5 3.76 0 6.84-0.91 9.22-2.74 2.39-1.82 3.53-4.3 3.42-7.42-0.09-2.59-2.5-5.06-7.23-7.42-4.73-2.35-8.91-4.5-12.53-6.45-3.63-1.94-6.42-4.32-8.37-7.13s-2.99-5.92-3.1-9.33c-0.26-7.49 2.62-13.46 8.62-17.9 6.01-4.44 13.49-6.66 22.44-6.66 6.14 0 14.17 2.02 24.1 6.05l-8.04 16.5zm62.74 0c-6.1-5.05-11.63-7.57-16.58-7.57-3.07 0-5.7 0.69-7.9 2.06-2.21 1.36-3.27 3.2-3.19 5.51 0.1 2.83 2.87 5.57 8.33 8.21s9.65 4.74 12.57 6.3 5.34 3.68 7.27 6.34c1.92 2.67 2.94 5.73 3.05 9.19 0.29 8.5-2.75 15.2-9.14 20.1-6.39 4.89-14.68 7.34-24.87 7.34-8.7 0-17.29-2.37-25.76-7.13l9.23-16.35c6.38 5.67 12.53 8.5 18.47 8.5 3.76 0 6.83-0.91 9.22-2.74 2.38-1.82 3.52-4.3 3.42-7.42-0.09-2.59-2.5-5.06-7.23-7.42-4.73-2.35-8.91-4.5-12.54-6.45-3.63-1.94-6.41-4.32-8.37-7.13-1.95-2.81-2.98-5.92-3.1-9.33-0.25-7.49 2.62-13.46 8.63-17.9s13.49-6.66 22.44-6.66c6.13 0 14.17 2.02 24.1 6.05l-8.05 16.5zm23.13-2.35c0.1-2.23 0.97-5.69-0.33-9.71-1.36-4.18-4.43-7.23-5.88-9.05h27.72l-10.72 67.76c-0.86 5.45-5.62 9.39-11.33 9.39h-9l9.54-58.39zm20.68-51.57c2.45 2.13 3.73 4.81 3.84 8.03 0.11 3.17-0.99 5.83-3.29 8-2.3 2.16-5.11 3.24-8.42 3.24-3.32 0-6.2-1.07-8.64-3.21-2.45-2.14-3.73-4.81-3.84-8.03s0.97-5.9 3.25-8.03c2.28-2.14 5.1-3.21 8.46-3.21 3.31 0 6.2 1.07 8.64 3.21zm124.51 59.39l-6.46 40.84c-0.89 5.64-5.82 9.73-11.74 9.73h-8.79l7.76-48.69c0.24-1.54 0.34-3.17 0.28-4.9-0.23-6.68-3.98-10.02-11.25-10.02-2.57 0-5.34 0.87-8.3 2.6s-5.14 3.6-6.56 5.62l-7.18 45.65c-0.89 5.65-5.83 9.74-11.75 9.74h-8.78l8.68-54.39c0.08-0.52 0.11-1.1 0.09-1.72-0.18-5-4.19-7.5-12.06-7.5-2.37 0-5.03 0.86-7.96 2.56-2.94 1.71-5.26 3.66-6.96 5.87l-7.19 45.45c-0.89 5.64-5.82 9.73-11.74 9.73h-8.72l8.86-55.75c0.2-1.3 0.26-3.32 0.16-6.06-0.16-4.75-1.01-9.38-2.55-13.9l18.07-3.1c0.73 2.45 1.35 4.78 1.87 6.99 5.83-4.51 13.23-6.77 22.18-6.77 10.49 0 18 2.76 22.54 8.28 6.1-5.52 13.92-8.28 23.46-8.28 15.88 0 24.06 7.01 24.54 21.03 0.07 2.07-0.1 4.4-0.5 6.99z"/>
  </g>
 </g>
</svg>
