<?xml version="1.0" encoding="UTF-8"?>
<svg width="464px" height="115px" viewBox="0 0 464 115" version="1.1" xmlns="http://www.w3.org/2000/svg" xmlns:xlink="http://www.w3.org/1999/xlink">
    <!-- Generator: Sketch 43.1 (39012) - http://www.bohemiancoding.com/sketch -->
    <title>Combined Shape Copy 3</title>
    <desc>Created with Sketch.</desc>
    <defs></defs>
    <g id="Page-1" stroke="none" stroke-width="1" fill="none" fill-rule="evenodd">
        <g id="1024" transform="translate(-48.000000, -301.000000)" fill="#000000">
            <path d="M132.181979,404.5928 C121.261979,412.1818 107.713979,415.9748 91.5379786,415.9748 C79.0739786,415.9748 68.8119786,412.0968 60.7569786,404.3408 C52.7009786,396.5848 48.4699786,386.7518 48.0629786,374.8408 C47.3489786,353.9488 52.7059786,337.3928 64.1369786,325.1698 C75.5649786,312.9478 91.4949786,306.8358 111.925979,306.8358 C123.005979,306.8358 131.324979,309.2378 136.879979,314.0388 L131.626979,329.6718 C124.208979,325.3978 116.889979,323.2608 109.667979,323.2608 C96.6079786,323.2608 86.2799786,327.9068 78.6829786,337.1998 C71.0849786,346.4928 67.5259786,358.1268 68.0029786,372.1028 C68.2979786,380.7478 70.9759786,387.4828 76.0389786,392.3098 C81.1009786,397.1368 87.8859786,399.5498 96.3939786,399.5498 C103.467979,399.5498 109.585979,397.6538 114.749979,393.8588 L117.968979,372.9678 L113.710979,372.9678 C108.087979,372.9678 103.672979,368.0188 104.503979,362.6498 L105.337979,357.2628 L139.543979,357.2628 L132.181979,404.5928 Z M147.296479,385.2864 C146.820479,371.3584 150.795479,359.5924 159.223479,349.9864 C167.650479,340.3814 178.566479,335.5784 191.972479,335.5784 C202.212479,335.5784 210.189479,338.1614 215.906479,343.3234 C221.621479,348.4864 224.644479,355.8224 224.969479,365.3314 C225.454479,379.5474 221.533479,391.4814 213.206479,401.1344 C204.879479,410.7874 193.864479,415.6144 180.162479,415.6144 C170.120479,415.6144 162.216479,413.0094 156.448479,407.7984 C150.681479,402.5874 147.630479,395.0834 147.296479,385.2864 Z M166.557479,384.4214 C166.932479,395.4194 171.993479,400.9194 181.739479,400.9194 C189.455479,400.9194 195.445479,397.4494 199.710479,390.5084 C203.973479,383.5684 205.944479,375.3444 205.620479,365.8354 C205.265479,355.4624 200.215479,350.2754 190.471479,350.2754 C182.902479,350.2754 176.946479,353.6964 172.606479,360.5414 C168.263479,367.3844 166.247479,375.3444 166.557479,384.4214 Z M280.307979,358.1269 C274.199979,353.0849 268.671979,350.5629 263.725979,350.5629 C260.657979,350.5629 258.022979,351.2479 255.819979,352.6169 C253.614979,353.9849 252.553979,355.8219 252.631979,358.1269 C252.728979,360.9619 255.504979,363.6989 260.962979,366.3399 C266.419979,368.9809 270.609979,371.0829 273.531979,372.6429 C276.453979,374.2049 278.875979,376.3169 280.798979,378.9829 C282.718979,381.6479 283.738979,384.7099 283.856979,388.1679 C284.147979,396.6689 281.098979,403.3679 274.711979,408.2669 C268.324979,413.1649 260.035979,415.6149 249.846979,415.6149 C241.139979,415.6149 232.551979,413.2369 224.078979,408.4829 L233.313979,392.1289 C239.690979,397.7969 245.847979,400.6299 251.782979,400.6299 C255.541979,400.6299 258.615979,399.7179 261.001979,397.8919 C263.387979,396.0679 264.527979,393.5949 264.420979,390.4719 C264.332979,387.8789 261.921979,385.4059 257.192979,383.0519 C252.462979,380.6999 248.283979,378.5509 244.655979,376.6049 C241.027979,374.6609 238.238979,372.2829 236.286979,369.4729 C234.336979,366.6639 233.302979,363.5549 233.185979,360.1449 C232.930979,352.6519 235.805979,346.6849 241.812979,342.2429 C247.819979,337.8009 255.298979,335.5789 264.252979,335.5789 C270.385979,335.5789 278.419979,337.5959 288.351979,341.6309 L280.307979,358.1269 Z M343.054979,358.1269 C336.946979,353.0849 331.418979,350.5629 326.472979,350.5629 C323.404979,350.5629 320.769979,351.2479 318.566979,352.6169 C316.361979,353.9849 315.300979,355.8219 315.378979,358.1269 C315.475979,360.9619 318.251979,363.6989 323.709979,366.3399 C329.166979,368.9809 333.356979,371.0829 336.278979,372.6429 C339.200979,374.2049 341.622979,376.3169 343.545979,378.9829 C345.465979,381.6479 346.485979,384.7099 346.603979,388.1679 C346.894979,396.6689 343.845979,403.3679 337.458979,408.2669 C331.071979,413.1649 322.782979,415.6149 312.593979,415.6149 C303.886979,415.6149 295.298979,413.2369 286.825979,408.4829 L296.060979,392.1289 C302.437979,397.7969 308.594979,400.6299 314.529979,400.6299 C318.288979,400.6299 321.362979,399.7179 323.748979,397.8919 C326.134979,396.0679 327.274979,393.5949 327.167979,390.4719 C327.079979,387.8789 324.668979,385.4059 319.939979,383.0519 C315.209979,380.6999 311.030979,378.5509 307.402979,376.6049 C303.774979,374.6609 300.985979,372.2829 299.033979,369.4729 C297.083979,366.6639 296.049979,363.5549 295.932979,360.1449 C295.677979,352.6519 298.552979,346.6849 304.559979,342.2429 C310.566979,337.8009 318.045979,335.5789 326.999979,335.5789 C333.132979,335.5789 341.166979,337.5959 351.098979,341.6309 L343.054979,358.1269 Z M366.178579,355.7768 C366.275579,353.5508 367.151579,350.0868 365.846579,346.0678 C364.491579,341.8898 361.423579,338.8448 359.972579,337.0198 L387.687579,337.0198 L376.968579,404.7818 C376.107579,410.2268 371.346579,414.1728 365.642579,414.1728 L356.636579,414.1728 L366.178579,355.7768 Z M386.863579,304.206 C389.311579,306.343 390.589579,309.022 390.699579,312.239 C390.807579,315.408 389.712579,318.074 387.410579,320.235 C385.110579,322.396 382.301579,323.477 378.988579,323.477 C375.674579,323.477 372.793579,322.408 370.346579,320.271 C367.898579,318.134 366.620579,315.456 366.510579,312.239 C366.401579,309.022 367.483579,306.343 369.760579,304.206 C372.036579,302.07 374.856579,301 378.220579,301 C381.534579,301 384.416579,302.07 386.863579,304.206 Z M511.367979,363.6025 L504.912979,404.4355 C504.020979,410.0815 499.086979,414.1735 493.171979,414.1735 L484.378979,414.1735 L492.139979,365.4755 C492.383979,363.9385 492.476979,362.3055 492.417979,360.5775 C492.189979,353.9025 488.439979,350.5625 481.167979,350.5625 C478.595979,350.5625 475.829979,351.4275 472.871979,353.1565 C469.912979,354.8855 467.726979,356.7585 466.310979,358.7755 L459.126979,404.4285 C458.237979,410.0775 453.301979,414.1735 447.383979,414.1735 L438.597979,414.1735 L447.277979,359.7845 C447.356979,359.2565 447.386979,358.6795 447.365979,358.0555 C447.194979,353.0605 443.178979,350.5625 435.312979,350.5625 C432.937979,350.5625 430.283979,351.4155 427.349979,353.1215 C424.413979,354.8255 422.094979,356.7835 420.389979,358.9915 L413.202979,404.4365 C412.310979,410.0815 407.375979,414.1735 401.461979,414.1735 L392.742979,414.1735 L401.597979,358.4155 C401.799979,357.1195 401.855979,355.1015 401.762979,352.3645 C401.599979,347.6095 400.747979,342.9755 399.208979,338.4605 L417.281979,335.3625 C418.008979,337.8125 418.632979,340.1425 419.153979,342.3515 C424.983979,337.8375 432.375979,335.5785 441.329979,335.5785 C451.816979,335.5785 459.330979,338.3415 463.872979,343.8635 C469.965979,338.3415 477.785979,335.5785 487.333979,335.5785 C503.212979,335.5785 511.390979,342.5915 511.869979,356.6145 C511.940979,358.6795 511.771979,361.0085 511.367979,363.6025 Z" id="Combined-Shape-Copy-3"></path>
        </g>
    </g>
</svg>