<?xml version="1.0" encoding="UTF-8"?>
<svg width="628px" height="151px" viewBox="0 0 628 151" version="1.1" xmlns="http://www.w3.org/2000/svg" xmlns:xlink="http://www.w3.org/1999/xlink">
    <!-- Generator: Sketch 43.1 (39012) - http://www.bohemiancoding.com/sketch -->
    <title>Combined Shape Copy</title>
    <desc>Created with Sketch.</desc>
    <defs></defs>
    <g id="Page-1" stroke="none" stroke-width="1" fill="none" fill-rule="evenodd">
        <g id="1024" transform="translate(-77.000000, -36.000000)" fill="#000000">
            <path d="M629.5,161.457711 C620.667627,161.457711 612.3769,159.156652 605.177731,155.135244 L581.581915,161.457711 L587.657975,138.782169 C582.531488,130.937682 579.542289,121.570423 579.542289,111.5 C579.542289,83.9090697 601.90907,61.5422886 629.5,61.5422886 C657.09093,61.5422886 679.457711,83.9090697 679.457711,111.5 C679.457711,139.09093 657.09093,161.457711 629.5,161.457711 M629.5,36 C671.197786,36 705,69.8022139 705,111.5 C705,153.197035 671.197786,187 629.5,187 C587.802214,187 554,153.197035 554,111.5 C554,69.8022139 587.802214,36 629.5,36 Z M616.835983,110.33422 L611.315093,150.189205 L621.63568,150.189205 C630.658117,150.189205 638.985655,142.874344 640.235724,133.851906 L644.425411,103.612091 L624.55351,103.612091 C620.664321,103.612091 617.370117,106.481091 616.835983,110.33422 Z M633.659036,71.3084577 C626.297598,71.3084577 620.330469,77.2755871 620.330469,84.6370249 C620.330469,91.9984627 626.297598,97.965592 633.659036,97.965592 C641.020474,97.965592 646.987603,91.9984627 646.987603,84.6370249 C646.987603,77.2755871 641.020474,71.3084577 633.659036,71.3084577 Z M161.181979,153.5928 C150.261979,161.1818 136.713979,164.9748 120.537979,164.9748 C108.073979,164.9748 97.8119786,161.0968 89.7569786,153.3408 C81.7009786,145.5848 77.4699786,135.7518 77.0629786,123.8408 C76.3489786,102.9488 81.7059786,86.3928 93.1369786,74.1698 C104.564979,61.9478 120.494979,55.8358 140.925979,55.8358 C152.005979,55.8358 160.324979,58.2378 165.879979,63.0388 L160.626979,78.6718 C153.208979,74.3978 145.889979,72.2608 138.667979,72.2608 C125.607979,72.2608 115.279979,76.9068 107.682979,86.1998 C100.084979,95.4928 96.5259786,107.1268 97.0029786,121.1028 C97.2979786,129.7478 99.9759786,136.4828 105.038979,141.3098 C110.100979,146.1368 116.885979,148.5498 125.393979,148.5498 C132.467979,148.5498 138.585979,146.6538 143.749979,142.8588 L146.968979,121.9678 L142.710979,121.9678 C137.087979,121.9678 132.672979,117.0188 133.503979,111.6498 L134.337979,106.2628 L168.543979,106.2628 L161.181979,153.5928 Z M176.296479,134.2864 C175.820479,120.3584 179.795479,108.5924 188.223479,98.9864 C196.650479,89.3814 207.566479,84.5784 220.972479,84.5784 C231.212479,84.5784 239.189479,87.1614 244.906479,92.3234 C250.621479,97.4864 253.644479,104.8224 253.969479,114.3314 C254.454479,128.5474 250.533479,140.4814 242.206479,150.1344 C233.879479,159.7874 222.864479,164.6144 209.162479,164.6144 C199.120479,164.6144 191.216479,162.0094 185.448479,156.7984 C179.681479,151.5874 176.630479,144.0834 176.296479,134.2864 Z M195.557479,133.4214 C195.932479,144.4194 200.993479,149.9194 210.739479,149.9194 C218.455479,149.9194 224.445479,146.4494 228.710479,139.5084 C232.973479,132.5684 234.944479,124.3444 234.620479,114.8354 C234.265479,104.4624 229.215479,99.2754 219.471479,99.2754 C211.902479,99.2754 205.946479,102.6964 201.606479,109.5414 C197.263479,116.3844 195.247479,124.3444 195.557479,133.4214 Z M309.307979,107.1269 C303.199979,102.0849 297.671979,99.5629 292.725979,99.5629 C289.657979,99.5629 287.022979,100.2479 284.819979,101.6169 C282.614979,102.9849 281.553979,104.8219 281.631979,107.1269 C281.728979,109.9619 284.504979,112.6989 289.962979,115.3399 C295.419979,117.9809 299.609979,120.0829 302.531979,121.6429 C305.453979,123.2049 307.875979,125.3169 309.798979,127.9829 C311.718979,130.6479 312.738979,133.7099 312.856979,137.1679 C313.147979,145.6689 310.098979,152.3679 303.711979,157.2669 C297.324979,162.1649 289.035979,164.6149 278.846979,164.6149 C270.139979,164.6149 261.551979,162.2369 253.078979,157.4829 L262.313979,141.1289 C268.690979,146.7969 274.847979,149.6299 280.782979,149.6299 C284.541979,149.6299 287.615979,148.7179 290.001979,146.8919 C292.387979,145.0679 293.527979,142.5949 293.420979,139.4719 C293.332979,136.8789 290.921979,134.4059 286.192979,132.0519 C281.462979,129.6999 277.283979,127.5509 273.655979,125.6049 C270.027979,123.6609 267.238979,121.2829 265.286979,118.4729 C263.336979,115.6639 262.302979,112.5549 262.185979,109.1449 C261.930979,101.6519 264.805979,95.6849 270.812979,91.2429 C276.819979,86.8009 284.298979,84.5789 293.252979,84.5789 C299.385979,84.5789 307.419979,86.5959 317.351979,90.6309 L309.307979,107.1269 Z M372.054979,107.1269 C365.946979,102.0849 360.418979,99.5629 355.472979,99.5629 C352.404979,99.5629 349.769979,100.2479 347.566979,101.6169 C345.361979,102.9849 344.300979,104.8219 344.378979,107.1269 C344.475979,109.9619 347.251979,112.6989 352.709979,115.3399 C358.166979,117.9809 362.356979,120.0829 365.278979,121.6429 C368.200979,123.2049 370.622979,125.3169 372.545979,127.9829 C374.465979,130.6479 375.485979,133.7099 375.603979,137.1679 C375.894979,145.6689 372.845979,152.3679 366.458979,157.2669 C360.071979,162.1649 351.782979,164.6149 341.593979,164.6149 C332.886979,164.6149 324.298979,162.2369 315.825979,157.4829 L325.060979,141.1289 C331.437979,146.7969 337.594979,149.6299 343.529979,149.6299 C347.288979,149.6299 350.362979,148.7179 352.748979,146.8919 C355.134979,145.0679 356.274979,142.5949 356.167979,139.4719 C356.079979,136.8789 353.668979,134.4059 348.939979,132.0519 C344.209979,129.6999 340.030979,127.5509 336.402979,125.6049 C332.774979,123.6609 329.985979,121.2829 328.033979,118.4729 C326.083979,115.6639 325.049979,112.5549 324.932979,109.1449 C324.677979,101.6519 327.552979,95.6849 333.559979,91.2429 C339.566979,86.8009 347.045979,84.5789 355.999979,84.5789 C362.132979,84.5789 370.166979,86.5959 380.098979,90.6309 L372.054979,107.1269 Z M395.178579,104.7768 C395.275579,102.5508 396.151579,99.0868 394.846579,95.0678 C393.491579,90.8898 390.423579,87.8448 388.972579,86.0198 L416.687579,86.0198 L405.968579,153.7818 C405.107579,159.2268 400.346579,163.1728 394.642579,163.1728 L385.636579,163.1728 L395.178579,104.7768 Z M415.863579,53.206 C418.311579,55.343 419.589579,58.022 419.699579,61.239 C419.807579,64.408 418.712579,67.074 416.410579,69.235 C414.110579,71.396 411.301579,72.477 407.988579,72.477 C404.674579,72.477 401.793579,71.408 399.346579,69.271 C396.898579,67.134 395.620579,64.456 395.510579,61.239 C395.401579,58.022 396.483579,55.343 398.760579,53.206 C401.036579,51.07 403.856579,50 407.220579,50 C410.534579,50 413.416579,51.07 415.863579,53.206 Z M540.367979,112.6025 L533.912979,153.4355 C533.020979,159.0815 528.086979,163.1735 522.171979,163.1735 L513.378979,163.1735 L521.139979,114.4755 C521.383979,112.9385 521.476979,111.3055 521.417979,109.5775 C521.189979,102.9025 517.439979,99.5625 510.167979,99.5625 C507.595979,99.5625 504.829979,100.4275 501.871979,102.1565 C498.912979,103.8855 496.726979,105.7585 495.310979,107.7755 L488.126979,153.4285 C487.237979,159.0775 482.301979,163.1735 476.383979,163.1735 L467.597979,163.1735 L476.277979,108.7845 C476.356979,108.2565 476.386979,107.6795 476.365979,107.0555 C476.194979,102.0605 472.178979,99.5625 464.312979,99.5625 C461.937979,99.5625 459.283979,100.4155 456.349979,102.1215 C453.413979,103.8255 451.094979,105.7835 449.389979,107.9915 L442.202979,153.4365 C441.310979,159.0815 436.375979,163.1735 430.461979,163.1735 L421.742979,163.1735 L430.597979,107.4155 C430.799979,106.1195 430.855979,104.1015 430.762979,101.3645 C430.599979,96.6095 429.747979,91.9755 428.208979,87.4605 L446.281979,84.3625 C447.008979,86.8125 447.632979,89.1425 448.153979,91.3515 C453.983979,86.8375 461.375979,84.5785 470.329979,84.5785 C480.816979,84.5785 488.330979,87.3415 492.872979,92.8635 C498.965979,87.3415 506.785979,84.5785 516.333979,84.5785 C532.212979,84.5785 540.390979,91.5915 540.869979,105.6145 C540.940979,107.6795 540.771979,110.0085 540.367979,112.6025 Z" id="Combined-Shape-Copy"></path>
        </g>
    </g>
</svg>