<?xml version="1.0" encoding="UTF-8"?>
<svg width="151px" height="151px" viewBox="0 0 151 151" version="1.1" xmlns="http://www.w3.org/2000/svg" xmlns:xlink="http://www.w3.org/1999/xlink">
    <!-- Generator: Sketch 43.1 (39012) - http://www.bohemiancoding.com/sketch -->
    <title>Combined Shape Copy 2</title>
    <desc>Created with Sketch.</desc>
    <defs></defs>
    <g id="Page-1" stroke="none" stroke-width="1" fill="none" fill-rule="evenodd">
        <g id="1024" transform="translate(-554.000000, -283.000000)" fill="#000000">
            <path d="M629.5,408.457711 C620.667627,408.457711 612.3769,406.156652 605.177731,402.135244 L581.581915,408.457711 L587.657975,385.782169 C582.531488,377.937682 579.542289,368.570423 579.542289,358.5 C579.542289,330.90907 601.90907,308.542289 629.5,308.542289 C657.09093,308.542289 679.457711,330.90907 679.457711,358.5 C679.457711,386.09093 657.09093,408.457711 629.5,408.457711 M629.5,283 C671.197786,283 705,316.802214 705,358.5 C705,400.197035 671.197786,434 629.5,434 C587.802214,434 554,400.197035 554,358.5 C554,316.802214 587.802214,283 629.5,283 Z M616.835983,357.33422 L611.315093,397.189205 L621.63568,397.189205 C630.658117,397.189205 638.985655,389.874344 640.235724,380.851906 L644.425411,350.612091 L624.55351,350.612091 C620.664321,350.612091 617.370117,353.481091 616.835983,357.33422 Z M633.659036,318.308458 C626.297598,318.308458 620.330469,324.275587 620.330469,331.637025 C620.330469,338.998463 626.297598,344.965592 633.659036,344.965592 C641.020474,344.965592 646.987603,338.998463 646.987603,331.637025 C646.987603,324.275587 641.020474,318.308458 633.659036,318.308458 Z" id="Combined-Shape-Copy-2"></path>
        </g>
    </g>
</svg>